<?xml version="1.0" encoding="utf-8"?>
<!-- Generator: Adobe Illustrator 24.3.0, SVG Export Plug-In . SVG Version: 6.00 Build 0)  -->
<svg version="1.1" id="레이어_1" xmlns="http://www.w3.org/2000/svg" xmlns:xlink="http://www.w3.org/1999/xlink" x="0px"
	 y="0px" viewBox="0 0 492 492" style="enable-background:new 0 0 492 492;" xml:space="preserve">
<style type="text/css">
	.st0{opacity:0.5;}
	.st1{fill:#E83C77;}
</style>
<g id="레이어_2_1_">
	<g id="레이어_1-2">
		<g class="st0">
			<image style="overflow:visible;enable-background:new    ;" width="492" height="492" xlink:href="640BC812.png" >
			</image>
		</g>
		<path class="st1" d="M354.2,196.7c9.3-17.1,18.9-34.1,27.8-51.4c0.9-1.8-0.9-5.9-2.6-8c-26.3-31.8-60.2-51.8-100.9-58.2
			C211.6,68.5,155.6,89.5,113,141.8c-71.2,87.3-33,222.4,73,262.5c89,33.6,187.3-9.5,222.3-97c2.8-7.1,4.3-14.7,7-21.9
			c0.8-2.1,3.7-4.9,5.4-4.8c11.5,0.9,23,2.5,35.4,4c-2.7,21-9.8,39.8-19.3,57.5c-26.2,49.1-65.9,83.3-118.8,102.1
			c-90.3,32.1-195.9-3.6-247.4-83.5C0.5,252,40.6,112.2,158.2,55.7c82.2-39.5,188.2-17.9,248.3,51.1c9.5,10.9,22.3,22.5,24.1,35.1
			c1.7,11.5-8.7,25.2-15.2,37.2c-22,41-44.4,81.8-67.1,122.5c-24,43-74.1,65.6-123,56c-48-9.3-84.6-48.3-90.9-96.8
			c-8.3-65.1,38-122.5,103.5-127.5c48.2-3.7,84.4,16.4,110,56.4c1.2,1.9,2.3,3.9,3.5,5.7C351.8,195.8,352.6,195.9,354.2,196.7z
			 M248.2,312.3c35.8,0,66.6-30,67-65.1c0.4-36.5-30.3-67.6-66.6-67.4c-37.3,0.2-67.6,30-67.7,66.5
			C180.9,281.9,211.9,312.3,248.2,312.3z"/>
	</g>
</g>
</svg>
